# xmcd
#
# Track frame offsets:
#	150
#	14932
#	34298
#	51389
#	71733
#	88918
#	107760
#	132038
#	150209
#	168815
#
# Disc length: 2449 seconds
#
# Revision: 0
# Processed by: cddbd v1.5.2PL0 Copyright (c) Steve Scherf et al.
# Submitted via: dBpowerAMP V4.0
#
DISCID=84098f0a
DTITLE=Rawa Blues Band - floating
DYEAR=2011
DGENRE=Blues
TTITLE0=dirty laundry
TTITLE1=floating
TTITLE2=chilling down
TTITLE3=blind man charged
TTITLE4=leaving kattowitz
TTITLE5=telephone talk
TTITLE6=catfish
TTITLE7=missed wedding
TTITLE8=damocles blues
TTITLE9=big city
EXTD=
EXTT0=
EXTT1=
EXTT2=
EXTT3=
EXTT4=
EXTT5=
EXTT6=
EXTT7=
EXTT8=
EXTT9=
PLAYORDER=
